PathFileType	4	(X/Y/Z)	C:\Users\Biomechanik\SynologyDrive\AlexP\Athlete_03\Athlete_3_22_07_06\sq_75_EMG\marker_experimental.trc
DataRate	CameraRate	NumFrames	NumMarkers	Units	OrigDataRate	OrigDataStartFrame	OrigNumFrames
200.000000	200.000000	4	58	mm	200.000000	818	1310
Frame#	Time	BL			BR			Athlete_3_RUA2_Opt:GLAB			Athlete_3_RUA2_Opt:RFHD			Athlete_3_RUA2_Opt:LFHD			Athlete_3_RUA2_Opt:C7			Athlete_3_RUA2_Opt:T6			Athlete_3_RUA2_Opt:SPINMOL			Athlete_3_RUA2_Opt:SPINM2			Athlete_3_RUA2_Opt:SPINM3			Athlete_3_RUA2_Opt:T12			Athlete_3_RUA2_Opt:BELTOL			Athlete_3_RUA2_Opt:BELT2			Athlete_3_RUA2_Opt:BELT3			Athlete_3_RUA2_Opt:SACROL			Athlete_3_RUA2_Opt:SACR2			Athlete_3_RUA2_Opt:SACR3			Athlete_3_RUA2_Opt:LTHOL			Athlete_3_RUA2_Opt:LTH2			Athlete_3_RUA2_Opt:LTH3			Athlete_3_RUA2_Opt:LSHAOL			Athlete_3_RUA2_Opt:LSHA2			Athlete_3_RUA2_Opt:LSHA3			Athlete_3_RUA2_Opt:LHEE			Athlete_3_RUA2_Opt:LTOE			Athlete_3_RUA2_Opt:LM5			Athlete_3_RUA2_Opt:RTHOL			Athlete_3_RUA2_Opt:RTH2			Athlete_3_RUA2_Opt:RTH3			Athlete_3_RUA2_Opt:RSHAOL			Athlete_3_RUA2_Opt:RSHA2			Athlete_3_RUA2_Opt:RSHA3			Athlete_3_RUA2_Opt:RHEE			Athlete_3_RUA2_Opt:RTOE			Athlete_3_RUA2_Opt:RM5			Athlete_3_RUA2_Opt:STRN			Athlete_3_RUA2_Opt:XIPH			Athlete_3_RUA2_Opt:LACR			Athlete_3_RUA2_Opt:LUAOL			Athlete_3_RUA2_Opt:LUA2			Athlete_3_RUA2_Opt:LUA3			Athlete_3_RUA2_Opt:LLAOL			Athlete_3_RUA2_Opt:LLA2			Athlete_3_RUA2_Opt:LLA3			Athlete_3_RUA2_Opt:LWRU			Athlete_3_RUA2_Opt:RACR			Athlete_3_RUA2_Opt:RUAOL			Athlete_3_RUA2_Opt:RUA3			Athlete_3_RUA2_Opt:RLAOL			Athlete_3_RUA2_Opt:RLA2			Athlete_3_RUA2_Opt:RLA3			Athlete_3_RUA2_Opt:RWRU			USERMO0			USERMO1			USERMO2			USERMO3			USERMO4			USERMO5			
		X1	Y1	Z1	X2	Y2	Z2	X3	Y3	Z3	X4	Y4	Z4	X5	Y5	Z5	X6	Y6	Z6	X7	Y7	Z7	X8	Y8	Z8	X9	Y9	Z9	X10	Y10	Z10	X11	Y11	Z11	X12	Y12	Z12	X13	Y13	Z13	X14	Y14	Z14	X15	Y15	Z15	X16	Y16	Z16	X17	Y17	Z17	X18	Y18	Z18	X19	Y19	Z19	X20	Y20	Z20	X21	Y21	Z21	X22	Y22	Z22	X23	Y23	Z23	X24	Y24	Z24	X25	Y25	Z25	X26	Y26	Z26	X27	Y27	Z27	X28	Y28	Z28	X29	Y29	Z29	X30	Y30	Z30	X31	Y31	Z31	X32	Y32	Z32	X33	Y33	Z33	X34	Y34	Z34	X35	Y35	Z35	X36	Y36	Z36	X37	Y37	Z37	X38	Y38	Z38	X39	Y39	Z39	X40	Y40	Z40	X41	Y41	Z41	X42	Y42	Z42	X43	Y43	Z43	X44	Y44	Z44	X45	Y45	Z45	X46	Y46	Z46	X47	Y47	Z47	X48	Y48	Z48	X49	Y49	Z49	X50	Y50	Z50	X51	Y51	Z51	X52	Y52	Z52	X53	Y53	Z53	X54	Y54	Z54	X55	Y55	Z55	X56	Y56	Z56	X57	Y57	Z57	X58	Y58	Z58	

819	4.09	118.8907165527344	858.5181274414064	-2225.1533203125	284.1631469726562	855.4624633789062	-9.322875976562448	532.75	1042.2529296875	-1117.270385742188	469.7322692871094	1053.264770507812	-1041.896118164062	471.3081970214844	1053.8291015625	-1197.79150390625	300.503173828125	957.5901489257814	-1112.274536132812	150.4229888916016	845.9356689453126	-1115.432739257812	129.8557891845703	830.7877197265626	-1122.69140625	85.78395080566406	790.1531372070314	-1070.023071289062	92.23442077636719	781.7366333007814	-1118.780517578125	70.46309661865234	751.0773925781251	-1114.865966796875	31.37088012695312	754.0111083984376	-1111.382690429688	-5.973482131958008	708.6154174804689	-1057.356811523438	-13.61248588562012	711.2463989257814	-1106.890380859375	-63.80407333374023	637.7279663085939	-1131.982788085938	-49.85391235351562	643.7467651367189	-1083.214965820312	-97.51244354248047	598.2638549804689	-1090.833740234375	45.35389709472656	537.5043334960939	-1394.29833984375	62.82321929931641	470.9147338867189	-1435.079345703125	86.11344146728516	515.4757080078126	-1436.177124023438	172.3031768798828	312.7208251953126	-1578.860229492188	121.9656219482422	254.7506561279298	-1560.631225585938	167.8760375976562	250.9024658203126	-1579.220947265625	72.02050018310547	41.27434158325205	-1481.255249023438	267.8555603027344	49.27367401123056	-1548.675659179688	197.1920623779297	22.25475692749033	-1636.357055664062	84.49986267089844	509.7580566406251	-823.1795043945312	149.248291015625	534.3860473632812	-784.7221069335938	126.9273452758789	489.8449096679688	-782.0101318359375	173.6776580810547	306.3031005859376	-683.2553100585938	189.3543090820312	229.3177947998047	-675.1116943359375	149.3392639160156	251.2416992187501	-696.4931640625	67.25212097167969	43.11695861816411	-790.1875610351562	258.7012939453125	45.9514656066895	-710.3425903320312	188.5984649658203	35.85504913330082	-626.0448608398438	384.39892578125	806.1132812500001	-1133.003051757812	342.1865234375	648.7746582031251	-1128.335571289062	259.3664245605469	896.6318359375001	-1311.026977539062	122.2273635864258	813.2517089843751	-1336.029174804688	85.38315582275391	773.8792114257814	-1297.9716796875	87.92118835449219	769.9433593750001	-1347.869262695312	69.07020568847656	736.5277709960939	-1422.95751953125	112.9996795654297	753.1815185546876	-1467.955810546875	110.4005432128906	785.0474243164064	-1428.9482421875	157.0033874511719	828.5459594726564	-1478.77783203125	292.1951293945312	896.0051269531251	-936.6088256835938	174.4116821289062	788.0894775390625	-882.2117309570312	118.3265991210938	763.667724609375	-876.2638549804688	133.1528472900391	749.494140625	-800.67626953125	175.8736267089844	796.8768920898438	-810.9224243164062	174.9000091552734	778.3807983398438	-762.9307861328125	206.9281463623047	820.18212890625	-746.9091186523438	0.267518013715744	0.08343049883842471	-0.4049049913883209	0.1183879971504211	0.08812899887561798	-0.05508450046181678	0.02325950004160404	0.02942889928817749	-0.04964910075068474	0.03230090066790581	0.2274489998817444	-0.7860370278358459	0.4104680120944977	2.863409996032715	-0.3004690110683439	2.929260015487671	0	0	
820	4.095	118.8674392700195	856.8992309570314	-2225.1923828125	284.4184875488281	853.5661010742188	-9.378084182739206	532.73583984375	1040.4267578125	-1117.189086914062	469.7028198242188	1051.339965820312	-1041.805297851562	471.2786865234375	1051.985229492188	-1197.714965820312	300.5846557617188	955.6655273437501	-1112.238037109375	150.5143127441406	844.0775146484376	-1115.4462890625	129.9208984375	828.9542846679689	-1122.694091796875	85.84200286865234	788.3508911132814	-1070.00146484375	92.25101470947266	779.9391479492189	-1118.767700195312	70.46859741210938	749.3285522460939	-1114.859130859375	31.37555503845215	752.3513793945314	-1111.381103515625	-5.943948745727539	706.9552001953126	-1057.341186523438	-13.61502456665039	709.5972290039064	-1106.867919921875	-63.83621978759766	635.7039184570314	-1131.931396484375	-49.89953231811523	641.7360839843751	-1083.151977539062	-97.45339965820312	596.1506347656251	-1090.785888671875	45.40192031860352	536.1378784179689	-1394.155029296875	63.12546539306641	469.6998291015626	-1435.033447265625	86.21758270263672	514.3402709960939	-1436.048095703125	172.5691375732422	312.6687927246095	-1578.855102539062	122.1737670898438	254.7618408203126	-1560.586791992188	168.0685577392578	250.8579406738282	-1579.207763671875	72.03994750976562	41.28774642944345	-1481.234375	267.8685913085938	49.26280975341806	-1548.658935546875	197.1963195800781	22.27985763549815	-1636.347534179688	84.87362670898438	508.4860534667969	-823.3505249023438	149.5806732177734	533.436767578125	-785.0343627929688	127.4011154174805	488.8380737304688	-782.1752319335938	174.1421356201172	306.2435607910157	-683.4030151367188	189.6485137939453	229.2295074462891	-675.1992797851562	149.6980285644531	251.2279510498047	-696.6293334960938	67.28712463378906	43.13990783691411	-790.2145385742188	258.7207946777344	45.93292236328129	-710.3659057617188	188.6085968017578	35.86676406860355	-626.0567626953125	384.46826171875	804.1719970703126	-1133.0224609375	342.2821044921875	646.8228149414064	-1128.387817382812	259.4759521484375	894.7329711914064	-1311.04736328125	122.2580490112305	811.4764404296876	-1336.068969726562	85.40312957763672	772.1105957031251	-1298.018310546875	87.95144653320312	768.1868286132814	-1347.906494140625	69.07898712158203	734.7932739257814	-1423.032958984375	113.0244979858398	751.4173583984376	-1468.017822265625	110.4377822875977	783.2834472656251	-1429.010986328125	157.0665283203125	826.7537231445314	-1478.824829101562	292.3308410644531	894.0634765625001	-936.6158447265625	174.4354553222656	786.2579956054688	-882.20751953125	118.3764877319336	761.86376953125	-876.27734375	133.2388305664062	747.6731567382812	-800.666259765625	175.9889373779297	795.0240478515625	-810.9401245117188	175.0276794433594	776.531982421875	-762.9441528320312	207.0740203857422	818.3154296875	-746.951904296875	0.2740809917449951	0.08392780274152759	-0.4203110039234161	0.1158469989895821	0.09090729802846909	-0.05649999901652335	0.02382769994437695	0.02922720089554787	-0.04999089986085892	0.03228079900145531	0.2282100021839142	-0.7830790281295776	0.4103910028934479	2.861599922180176	-0.3013629913330076	2.928859949111938	0	0	
821	4.1	118.8502502441406	855.2799072265626	-2225.2294921875	284.6777954101562	851.6700439453125	-9.431604385375925	532.726318359375	1038.580688476562	-1117.0947265625	469.6730041503906	1049.392211914062	-1041.706420898438	471.2614135742188	1050.13037109375	-1197.6298828125	300.6643981933594	953.7354736328126	-1112.212036132812	150.599853515625	842.2186279296876	-1115.465209960938	129.9764099121094	827.1197509765626	-1122.703369140625	85.88834381103516	786.5447387695314	-1069.989013671875	92.25691223144531	778.1414794921876	-1118.7646484375	70.46406555175781	747.5780029296876	-1114.863403320312	31.37070083618164	750.6925048828126	-1111.395385742188	-5.924793243408203	705.2973022460939	-1057.340942382812	-13.62656402587891	707.9488525390626	-1106.861328125	-63.87639236450195	633.6815185546876	-1131.90087890625	-49.95787048339844	639.7268066406251	-1083.108154296875	-97.40415191650391	594.0377807617189	-1090.7607421875	45.46331405639648	534.7662353515626	-1394.020874023438	63.44301986694336	468.4797363281251	-1434.994506835938	86.33596801757812	513.1989135742189	-1435.92529296875	172.8511962890625	312.6164855957032	-1578.835327148438	122.3930130004883	254.7758941650391	-1560.52880859375	168.2720336914062	250.8137207031251	-1579.182250976562	72.0592041015625	41.30037689208994	-1481.213623046875	267.8823852539062	49.2514419555665	-1548.640991210938	197.2011260986328	22.30561065673838	-1636.3369140625	85.23757934570312	507.2196350097657	-823.54296875	149.9056091308594	532.4911499023438	-785.3738403320312	127.8650207519531	487.8380432128907	-782.364501953125	174.6003875732422	306.1895141601563	-683.5744018554688	189.9364624023438	229.1476440429688	-675.3027954101562	150.0506896972656	251.2183227539063	-696.7843017578125	67.31938934326172	43.1597290039063	-790.24072265625	258.7372741699219	45.91433715820317	-710.389892578125	188.6187896728516	35.87873077392582	-626.0690307617188	384.529052734375	802.2198486328126	-1133.052734375	342.3634643554688	644.8620605468751	-1128.452026367188	259.5843200683594	892.8329467773439	-1311.07666015625	122.2868347167969	809.7088012695314	-1336.113525390625	85.41409301757812	770.3520507812501	-1298.072875976562	87.97217559814453	766.4406127929689	-1347.95166015625	69.07862091064453	733.0690917968751	-1423.11474609375	113.0431442260742	749.6610107421876	-1468.084350585938	110.4702072143555	781.5266723632814	-1429.078369140625	157.1291961669922	824.9654541015626	-1478.873046875	292.4718933105469	892.1160278320314	-936.6282348632812	174.4497528076172	784.43212890625	-882.207275390625	118.4171981811523	760.0686645507812	-876.2955932617188	133.3120880126953	745.8623657226562	-800.6589965820312	176.0980377197266	793.1763305664062	-810.958984375	175.1449279785156	774.6895141601562	-762.9592895507812	207.2140197753906	816.45166015625	-746.99365234375	0.2819179892539978	0.08440519869327548	-0.4366759955883026	0.1131599992513657	0.09397470206022263	-0.057635098695755	0.02448219992220402	0.0289366003125906	-0.0503544993698597	0.03248549997806549	0.2283769994974137	-0.7802559733390808	0.4102770090103149	2.859829902648926	-0.3031490147113798	2.928390026092529	0	0	
822	4.105	118.8391952514648	853.6586303710939	-2225.26416015625	284.9412231445312	849.7727661132812	-9.483535766601511	532.7230224609375	1036.714233398438	-1116.989990234375	469.6448364257812	1047.422607421875	-1041.602416992188	471.2582092285156	1048.264526367188	-1197.538696289062	300.7420654296875	951.8006591796876	-1112.198486328125	150.6800384521484	840.3590698242189	-1115.489990234375	130.0231170654297	825.2837524414064	-1122.720703125	85.92385864257812	784.7346801757814	-1069.987182617188	92.25369262695312	776.3427734375001	-1118.7724609375	70.45134735107422	745.8251953125001	-1114.879760742188	31.35935974121094	749.0340576171876	-1111.42578125	-5.913324356079102	703.6414184570314	-1057.356323242188	-13.64400482177734	706.3007202148439	-1106.870971679688	-63.92162704467773	631.6652832031251	-1131.890747070312	-50.02481842041016	637.7230834960939	-1083.083740234375	-97.36311340332031	591.9309692382814	-1090.7578125	45.5323600769043	533.3934936523439	-1393.895385742188	63.76942825317383	467.2574157714845	-1434.962280273438	86.46427154541016	512.0540771484376	-1435.808471679688	173.1432647705078	312.564422607422	-1578.802490234375	122.6186065673828	254.7926330566407	-1560.458374023438	168.4815521240234	250.7702026367188	-1579.145751953125	72.07745361328125	41.31170654296884	-1481.193237304688	267.8962097167969	49.23986816406259	-1548.622192382812	197.2062835693359	22.33123016357432	-1636.32568359375	85.58734130859375	505.9625549316407	-823.7550659179688	150.2181091308594	531.55224609375	-785.7373046875	128.3145904541016	486.8475036621094	-782.575439453125	175.0468902587891	306.1412048339844	-683.7655029296875	190.2138519287109	229.0726470947266	-675.4193115234375	150.3928680419922	251.2129058837891	-696.9551391601562	67.34828948974609	43.17596817016607	-790.2654418945312	258.7501831054688	45.89619827270512	-710.4138793945312	188.6286315917969	35.89041900634769	-626.0811767578125	384.5820922851562	800.2584228515626	-1133.09521484375	342.4326782226562	642.8939819335939	-1128.529052734375	259.6911926269531	890.9320678710939	-1311.11572265625	122.3145065307617	807.9480590820314	-1336.16259765625	85.41686248779297	768.6027832031251	-1298.135009765625	87.98367309570312	764.7044067382814	-1348.0048828125	69.06959533691406	731.3547363281251	-1423.202758789062	113.0560913085938	747.9122314453126	-1468.15576171875	110.4982299804688	779.7769165039064	-1429.150634765625	157.1916198730469	823.1810302734376	-1478.922973632812	292.6184387207031	890.1631469726564	-936.6466064453125	174.4548950195312	782.61279296875	-882.21240234375	118.4481658935547	758.2835693359375	-876.3199462890625	133.3719329833984	744.0629272460938	-800.65576171875	176.2009887695312	791.3344116210938	-810.979736328125	175.2511291503906	772.8541259765625	-762.9771118164062	207.347900390625	814.5908813476562	-747.0347900390625	0.2908070087432861	0.08477929979562762	-0.4536150097846985	0.1104980036616325	0.09734570235013962	-0.05841580033302306	0.02521920017898083	0.02859479933977127	-0.0507505014538765	0.03296200186014175	0.2279040068387986	-0.7774140238761902	0.4101490080356598	2.858099937438965	-0.3058010041713713	2.927890062332153	0	0	
